


<svg width="190.76395mm" height="190.76962mm" viewBox="0 0 190.76395 190.76962" version="1.1" id="svg467" xmlns="http://www.w3.org/2000/svg">
  
  <defs id="defs464">
    <clipPath clipPathUnits="userSpaceOnUse" id="clipPath27">
      <path d="M 0,0 H 702.992 V 878.74 H 0 Z" id="path25"></path>
    </clipPath>
    <clipPath clipPathUnits="userSpaceOnUse" id="clipPath59">
      <path d="M 0,0 H 702.992 V 878.74 H 0 Z" id="path57"></path>
    </clipPath>
    <clipPath clipPathUnits="userSpaceOnUse" id="clipPath95">
      <path d="M 0,0 H 702.992 V 878.74 H 0 Z" id="path93"></path>
    </clipPath>
  </defs>
  <g id="layer1" transform="translate(-9.2207267,-44.709528)">
    <g id="g413" transform="matrix(0.56771943,0,0,-0.56771943,-94.948238,441.27404)">
      <g id="g21">
        <g id="g23" clip-path="url(#clipPath27)">
          <g id="g29" transform="translate(351.5107,698.522)">
            <path d="m 0,0 c -92.795,0 -168.024,-75.229 -168.024,-168.023 0,-92.786 75.229,-168.005 168.024,-168.005 92.776,0 167.994,75.219 167.994,168.005 C 167.994,-75.229 92.776,0 0,0" style="fill:#ffffff;fill-opacity:1;fill-rule:nonzero;stroke:none" id="path31"></path>
          </g>
          <g id="g33" transform="translate(351.5107,690.6033)">
            <path d="m 0,0 c -88.434,0 -160.085,-71.682 -160.085,-160.104 0,-88.395 71.651,-160.076 160.085,-160.076 88.413,0 160.085,71.681 160.085,160.076 C 160.085,-71.682 88.413,0 0,0 m 0,-312.183 c -83.992,0 -152.118,68.086 -152.118,152.079 0,83.991 68.126,152.107 152.118,152.107 83.992,0 152.058,-68.116 152.058,-152.107 0,-83.993 -68.066,-152.079 -152.058,-152.079" style="fill:#880827;fill-opacity:1;fill-rule:nonzero;stroke:none" id="path35"></path>
          </g>
          <g id="g37" transform="translate(351.5107,667.3872)">
            <path d="m 0,0 c -75.611,0 -136.898,-61.287 -136.898,-136.888 0,-75.563 61.287,-136.861 136.898,-136.861 75.582,0 136.859,61.298 136.859,136.861 C 136.859,-61.287 75.582,0 0,0 m 112.7,-77.744 7.918,-17.685 -0.323,-0.815 -9.894,-4.431 -0.796,0.236 -0.167,0.344 0.256,0.825 c 2.299,1.268 4.127,2.731 5.403,4.441 1.396,1.877 1.69,3.557 0.993,5.129 l -0.069,0.206 -14.364,-6.425 c -2.653,-1.179 -2.476,-2.516 -2.004,-3.518 l 1.011,-2.289 -0.324,-0.805 -0.53,-0.227 -0.806,0.295 -5.933,13.136 0.324,0.845 0.56,0.236 0.785,-0.295 1.003,-2.279 c 0.451,-0.953 1.101,-1.396 2.014,-1.336 0.57,0 1.237,0.166 1.974,0.52 l 14.345,6.445 -0.187,0.393 c -0.736,1.611 -2.241,2.427 -4.706,2.564 -0.345,0 -0.679,0.01 -1.032,0 -0.943,-0.019 -2.053,-0.176 -3.203,-0.432 -0.52,-0.137 -1.316,-0.393 -2.338,-0.756 l -0.796,0.353 -0.147,0.344 0.295,0.816 9.933,4.48 z m -16.888,-59.144 c 0,-52.917 -42.886,-95.803 -95.812,-95.803 -52.907,0 -95.832,42.886 -95.832,95.803 0,52.925 42.925,95.811 95.832,95.811 52.926,0 95.812,-42.886 95.812,-95.811 m 7.987,70.59 -0.226,0.383 0.206,0.855 0.491,0.305 0.826,-0.236 5.305,-8.96 -0.216,-0.845 -0.491,-0.275 -0.835,0.186 -0.246,0.423 c -0.413,0.697 -0.884,1.071 -1.513,1.179 h -0.039 c -0.806,0.01 -1.562,-0.265 -2.476,-0.816 l -10.699,-6.327 c -1.013,-0.589 -1.661,-1.199 -1.906,-1.827 -0.226,-0.57 -0.128,-1.179 0.295,-1.887 l 0.215,-0.392 -0.215,-0.855 -0.511,-0.295 -0.836,0.196 -5.305,8.97 0.226,0.855 0.52,0.305 0.806,-0.207 0.275,-0.393 c 0.403,-0.707 0.894,-1.08 1.504,-1.208 h 0.029 c 0.835,0 1.592,0.265 2.486,0.796 l 0.756,0.452 0.658,0.393 0.512,0.285 0.697,0.393 0.796,0.491 0.855,0.511 5.168,3.065 1.699,1.003 c 0.462,0.343 0.835,0.658 1.081,0.933 0.205,0.245 0.364,0.491 0.422,0.756 0.167,0.57 0.07,1.13 -0.314,1.788 m -16.212,0 c -0.175,0.57 -0.451,1.307 -0.785,2.26 l -0.433,1.159 c -0.697,1.897 -1.11,3.183 -1.306,3.989 -0.226,0.924 -0.354,1.661 -0.334,2.299 0,0.658 0.137,1.366 0.403,2.054 0.324,0.982 0.944,1.837 1.798,2.535 0.972,0.815 2.073,1.335 3.222,1.532 0.393,0.079 0.776,0.088 1.13,0.088 0.795,0 1.601,-0.157 2.387,-0.451 1.13,-0.462 2.084,-1.189 2.929,-2.172 1.217,-1.503 1.965,-3.468 2.21,-5.885 0.108,-0.963 0.265,-1.149 0.265,-1.179 0.02,-0.01 0.069,-0.098 0.246,-0.098 0.215,0 0.57,0.069 1.189,0.383 l 0.726,-0.157 0.286,-0.305 -0.089,-0.884 -5.678,-4.676 -0.806,0.078 -0.295,0.314 -0.02,0.747 c 0.993,1.444 1.651,2.712 2.034,3.773 0.207,0.727 0.285,1.483 0.266,2.279 -0.04,0.776 -0.197,1.592 -0.462,2.378 -0.295,0.766 -0.727,1.493 -1.239,2.132 -0.353,0.432 -0.756,0.756 -1.189,0.953 -0.353,0.186 -0.804,0.275 -1.237,0.275 -0.442,-0.02 -0.825,-0.079 -1.14,-0.177 -0.344,-0.137 -0.639,-0.304 -0.864,-0.491 -0.452,-0.373 -0.738,-0.816 -0.806,-1.336 -0.049,-0.246 -0.049,-0.56 -0.02,-0.924 0.03,-0.403 0.128,-0.845 0.315,-1.424 0.227,-0.57 0.53,-1.346 0.933,-2.339 0.098,-0.285 0.148,-0.442 0.187,-0.511 l 0.255,-0.629 0.363,-0.913 c 0.59,-1.573 0.993,-2.781 1.131,-3.606 0.176,-0.884 0.137,-1.798 -0.059,-2.692 -0.099,-0.678 -0.384,-1.326 -0.777,-1.955 -0.373,-0.648 -0.883,-1.238 -1.522,-1.719 -0.629,-0.541 -1.336,-0.953 -2.103,-1.238 -0.777,-0.315 -1.601,-0.482 -2.377,-0.501 h -0.315 c -0.943,0 -1.858,0.196 -2.682,0.599 -0.924,0.472 -1.788,1.159 -2.526,2.063 -0.529,0.629 -0.923,1.317 -1.247,1.984 -0.266,0.689 -0.54,1.573 -0.756,2.742 -0.138,0.658 -0.285,1.13 -0.384,1.434 -0.088,0.295 -0.225,0.492 -0.363,0.698 -0.235,0.275 -0.561,0.442 -0.914,0.472 h -0.078 c -0.532,0 -0.914,-0.108 -1.327,-0.364 l -0.776,0.157 -0.265,0.305 0.079,0.844 7.604,6.318 0.875,-0.059 0.274,-0.334 -0.04,-0.825 c -1.177,-1.179 -2.014,-2.535 -2.515,-4.068 -0.245,-0.874 -0.382,-1.876 -0.382,-2.957 0,-1.081 0.157,-2.083 0.442,-3.006 0.266,-0.914 0.649,-1.65 1.159,-2.26 0.412,-0.511 0.924,-0.894 1.494,-1.12 0.423,-0.177 0.805,-0.256 1.208,-0.275 0.167,0 0.324,0.019 0.481,0.039 0.542,0.069 1.051,0.324 1.513,0.708 0.512,0.432 0.827,0.923 0.954,1.551 0.068,0.295 0.087,0.59 0.059,0.974 -0.069,0.383 -0.158,0.874 -0.306,1.414 m -18.804,36.588 0.884,0.118 9.954,-8.076 c 1.384,-1.15 2.367,-2.172 2.975,-3.134 0.698,-0.983 0.993,-2.034 0.954,-3.135 -0.03,-0.638 -0.167,-1.277 -0.412,-1.935 -0.217,-0.638 -0.571,-1.238 -0.993,-1.749 -1.081,-1.356 -2.485,-2.024 -4.234,-2.024 -0.904,0.03 -1.631,0.236 -2.506,0.58 -0.825,0.324 -1.592,0.727 -2.319,1.199 -0.314,0.196 -0.668,0.422 -1.06,0.736 0.039,-0.157 0.078,-0.314 0.118,-0.481 0.196,-0.56 0.392,-1.071 0.628,-1.562 0.246,-0.472 0.531,-1.012 0.934,-1.562 l 0.107,-0.472 -0.196,-0.815 -0.255,-1.169 -0.207,-1.012 c -0.197,-0.914 -0.333,-1.759 -0.422,-2.466 -0.078,-0.708 -0.098,-1.219 -0.069,-1.543 0.098,-0.462 0.453,-0.973 1.082,-1.484 l 0.353,-0.265 0.098,-0.864 -0.374,-0.492 -0.873,-0.088 -4.816,3.91 -0.215,0.589 2.102,11.358 -2.141,1.759 -3.38,-4.205 c -0.718,-0.884 -1.12,-1.7 -1.12,-2.368 -0.01,-0.599 0.294,-1.139 0.894,-1.68 l 0.413,-0.295 0.058,-0.854 -0.343,-0.472 -0.865,-0.099 -8.135,6.574 -0.079,0.874 0.355,0.442 0.864,0.098 0.383,-0.285 c 0.472,-0.393 0.963,-0.599 1.414,-0.599 0.148,0 0.246,0 0.393,0.039 0.648,0.167 1.366,0.688 2.083,1.612 l 7.851,9.687 c 0.717,0.883 1.12,1.7 1.159,2.387 0.009,0.57 -0.295,1.12 -0.963,1.661 l -0.314,0.265 -0.128,0.874 z m -21.663,11.456 0.806,0.245 15.631,-8.056 0.264,-0.816 -3.821,-7.359 -0.836,-0.245 -0.313,0.128 -0.295,0.727 c 0.373,1.405 0.608,2.476 0.727,3.193 0.078,0.687 0.097,1.415 0.048,2.151 -0.079,0.786 -0.304,1.445 -0.618,1.926 -0.541,0.796 -1.395,1.503 -2.545,2.073 l -2.338,1.238 -4.087,-7.929 0.226,-0.137 c 0.353,-0.187 0.687,-0.285 1.091,-0.285 0.608,0 1.307,0.246 2.024,0.766 0.618,0.423 1.266,1.051 1.856,1.818 0.295,0.363 0.648,0.874 1.061,1.572 l 0.855,0.216 0.353,-0.196 0.256,-0.845 -6.445,-12.439 -0.815,-0.265 -0.364,0.177 -0.315,0.776 c 0.276,0.698 0.512,1.366 0.698,2.014 0.167,0.599 0.276,1.12 0.345,1.543 0.029,0.402 0.029,0.835 0,1.267 -0.089,1.12 -0.6,1.926 -1.583,2.417 l -0.069,0.029 -3.832,-7.417 1.887,-0.983 c 0.678,-0.344 1.297,-0.57 1.886,-0.737 0.472,-0.117 0.894,-0.167 1.297,-0.167 h 0.354 c 0.551,0.05 1.11,0.197 1.71,0.384 0.963,0.363 1.896,0.982 2.82,1.847 0.52,0.52 1.189,1.267 1.984,2.22 l 0.747,0.177 0.373,-0.246 0.285,-0.796 -4.058,-7.82 -0.835,-0.265 -15.956,8.272 -0.284,0.786 0.245,0.531 0.835,0.275 0.394,-0.197 c 0.412,-0.216 0.786,-0.334 1.149,-0.334 0.924,0 1.759,0.727 2.485,2.162 l 5.738,11.062 c 0.521,1.032 0.748,1.906 0.639,2.575 -0.118,0.559 -0.53,1.061 -1.268,1.444 l -0.392,0.196 -0.256,0.816 z m -21.861,6.189 0.787,0.423 9.245,-2.81 0.383,-0.737 -0.138,-0.54 -0.767,-0.423 -1.13,0.354 c -0.175,0.029 -0.303,0.078 -0.461,0.078 -0.157,0 -0.295,-0.049 -0.432,-0.098 -0.216,-0.108 -0.373,-0.324 -0.462,-0.658 -0.138,-0.403 -0.186,-0.933 -0.158,-1.562 l 0.542,-11.8 5.776,8.047 c 0.482,0.707 0.815,1.267 0.963,1.817 0.217,0.698 0.217,1.268 0.03,1.749 -0.197,0.481 -0.551,0.796 -1.081,1.012 l -0.363,0.727 0.175,0.55 0.728,0.413 6.387,-1.916 0.442,-0.757 -0.186,-0.54 -0.67,-0.412 h -0.421 c -0.365,0.019 -0.738,-0.06 -1.121,-0.187 -0.511,-0.216 -1.041,-0.56 -1.561,-1.071 -0.59,-0.55 -1.249,-1.326 -1.946,-2.299 l -9.845,-13.755 -0.599,-0.226 -0.452,0.089 -0.482,0.569 -0.913,19.149 c -0.098,1.965 -0.58,3.105 -1.474,3.331 l -0.54,0.186 -0.413,0.757 z M 7.761,-30.781 8.44,-30.28 8.891,-30.33 c 0.137,-0.029 0.276,-0.038 0.413,-0.038 0.629,0 1.12,0.186 1.474,0.53 0.442,0.432 0.776,1.258 0.913,2.437 l 0.167,1.12 0.06,0.481 0.128,0.894 0.058,0.462 0.079,0.59 0.176,1.364 0.511,3.725 0.55,4.165 c 0.05,0.57 0,1.052 -0.059,1.454 -0.039,0.295 -0.137,0.58 -0.324,0.816 -0.323,0.452 -0.835,0.737 -1.601,0.825 l -0.441,0.059 -0.541,0.717 0.058,0.551 0.708,0.52 10.325,-1.395 0.521,-0.687 -0.068,-0.57 -0.687,-0.521 -0.462,0.069 c -0.158,0.01 -0.306,0.029 -0.453,0.029 -0.59,0.03 -1.071,-0.167 -1.424,-0.501 -0.443,-0.472 -0.747,-1.277 -0.925,-2.465 L 16.378,-28.03 c -0.128,-1.159 -0.05,-2.044 0.284,-2.604 0.305,-0.54 0.846,-0.855 1.631,-0.953 l 0.482,-0.059 0.521,-0.717 -0.069,-0.57 -0.698,-0.56 -10.336,1.415 -0.53,0.678 z m -23.716,21.143 6.631,0.206 0.492,-0.206 10.826,-13.578 -0.225,7.378 c -0.07,1.052 -0.227,1.975 -0.501,2.732 -0.295,0.707 -0.688,1.248 -1.15,1.601 -0.266,0.197 -0.511,0.324 -0.728,0.383 -0.196,0.069 -0.54,0.138 -1.139,0.158 l -0.609,0.599 -0.011,0.589 0.62,0.629 8.175,0.265 0.637,-0.599 0.011,-0.559 -0.747,-0.639 c -0.992,-0.02 -1.709,-0.443 -2.181,-1.258 -0.53,-0.894 -0.747,-2.22 -0.688,-3.989 l 0.511,-15.268 -0.609,-0.629 -0.393,-0.029 -0.491,0.236 -13.765,17.085 0.383,-10.905 c 0.029,-1.15 0.167,-2.084 0.403,-2.771 0.197,-0.609 0.55,-1.061 0.962,-1.385 0.354,-0.246 0.767,-0.402 1.278,-0.472 0.325,-0.069 0.757,-0.088 1.365,-0.097 l 0.581,-0.6 0.019,-0.58 -0.6,-0.609 -8.625,-0.275 -0.619,0.579 -0.01,0.57 0.521,0.619 c 0.815,0.089 1.414,0.275 1.886,0.56 0.452,0.314 0.737,0.747 0.943,1.287 0.206,0.6 0.295,1.366 0.265,2.289 l -0.412,12.075 c -0.01,0.649 -0.128,1.199 -0.344,1.641 -0.235,0.393 -0.521,0.688 -0.944,0.904 -0.343,0.177 -0.785,0.285 -1.247,0.285 l -1.052,0.579 -0.019,0.57 z m -27.903,-6.573 11.112,2.938 0.727,-0.462 0.147,-0.531 -0.432,-0.756 -1.267,-0.314 c -0.787,-0.227 -1.288,-0.6 -1.533,-1.179 -0.256,-0.6 -0.246,-1.494 0.059,-2.633 l 2.76,-10.474 c 0.295,-1.11 0.728,-2.004 1.318,-2.662 0.608,-0.649 1.257,-1.091 2.072,-1.307 0.354,-0.098 0.717,-0.147 1.091,-0.147 0.511,-0.04 1.08,0.049 1.64,0.196 0.885,0.256 1.66,0.619 2.358,1.15 0.679,0.52 1.12,1.09 1.425,1.778 0.52,1.287 0.501,3.016 -0.02,5.021 l -1.965,7.407 c -0.56,2.162 -1.424,3.518 -2.515,4.009 -0.314,0.108 -0.6,0.187 -0.884,0.216 -0.315,0 -0.766,-0.069 -1.336,-0.196 l -0.708,0.422 -0.148,0.551 0.433,0.775 7.732,2.014 0.757,-0.422 0.137,-0.56 -0.382,-0.707 c -0.482,-0.178 -0.757,-0.364 -0.895,-0.462 -0.196,-0.157 -0.383,-0.374 -0.57,-0.668 -0.265,-0.452 -0.402,-1.012 -0.462,-1.68 -0.039,-0.708 0.08,-1.484 0.315,-2.378 l 2.181,-8.292 c 0.608,-2.289 0.569,-4.235 -0.118,-5.777 -0.354,-0.835 -0.845,-1.513 -1.414,-2.004 -1.15,-0.953 -2.634,-1.7 -4.373,-2.152 -1.228,-0.324 -2.358,-0.472 -3.38,-0.452 h -0.314 c -1.208,0.039 -2.24,0.305 -3.125,0.737 -1.699,0.855 -2.857,2.446 -3.438,4.686 l -2.711,10.208 c -0.698,2.624 -1.937,2.653 -2.338,2.653 -0.246,0.02 -0.531,-0.029 -0.817,-0.098 l -0.668,-0.177 -0.746,0.422 -0.128,0.561 z m -27.057,-15.867 c 0.697,1.798 1.847,3.233 3.379,4.303 1.376,0.934 2.829,1.513 4.333,1.71 0.314,0.049 0.629,0.078 0.963,0.078 1.198,0.059 2.407,-0.117 3.625,-0.501 1.327,-0.432 2.554,-1.08 3.684,-1.906 1.111,-0.874 2.103,-1.886 2.888,-3.035 1.199,-1.709 1.937,-3.616 2.162,-5.591 0.246,-2.004 0.019,-3.9 -0.706,-5.659 -0.738,-1.768 -1.887,-3.232 -3.489,-4.303 -1.199,-0.825 -2.515,-1.356 -3.921,-1.582 -0.412,-0.108 -0.874,-0.147 -1.365,-0.147 -0.933,-0.049 -1.896,0.039 -2.819,0.304 -1.444,0.315 -2.78,0.943 -4.048,1.808 -1.258,0.865 -2.368,1.975 -3.232,3.252 -1.17,1.69 -1.907,3.586 -2.133,5.61 -0.225,1.975 -0.03,3.891 0.679,5.659 m -21.743,-15.69 7.221,6.759 c 0.423,0.403 0.914,0.845 1.454,1.278 0.57,0.451 1.082,0.815 1.533,1.149 0.492,0.354 0.914,0.599 1.277,0.796 1.012,0.53 2.034,0.806 3.027,0.786 0.265,-0.02 0.549,-0.02 0.834,-0.069 1.278,-0.255 2.427,-0.914 3.449,-1.994 0.697,-0.747 1.208,-1.562 1.503,-2.407 0.275,-0.855 0.374,-1.739 0.227,-2.624 -0.148,-0.884 -0.482,-1.778 -1.033,-2.692 -0.53,-0.874 -1.237,-1.729 -2.103,-2.564 l -2.868,-2.672 3.066,-3.282 c 0.893,-0.982 1.728,-1.464 2.456,-1.464 0.53,0 1.021,0.216 1.562,0.688 l 0.589,0.57 0.855,-0.039 0.403,-0.413 -0.049,-0.865 -7.958,-7.437 -0.866,0.029 -0.381,0.423 0.028,0.855 0.442,0.383 c 0.777,0.786 1.464,1.926 -0.53,4.058 l -8.528,9.078 c -0.894,0.962 -1.7,1.424 -2.436,1.444 -0.531,0.029 -1.042,-0.226 -1.533,-0.688 l -0.422,-0.383 -0.865,0.02 -0.363,0.422 z m -15.337,-21.192 0.61,0.265 15.473,-3.674 -9.117,12.998 v 0.668 l 3.666,5.374 0.835,0.177 0.49,-0.334 0.147,-0.835 -0.342,-0.492 c -0.454,-0.697 -0.59,-1.277 -0.384,-1.866 0.186,-0.649 0.776,-1.317 1.748,-1.955 l 10.288,-6.996 c 0.893,-0.609 1.66,-0.913 2.309,-0.913 0.755,0.01 1.286,0.383 1.758,1.041 l 0.334,0.481 0.854,0.197 0.482,-0.354 0.167,-0.845 -6.003,-8.832 -0.864,-0.167 -0.462,0.334 -0.159,0.845 0.394,0.589 c 0.442,0.678 0.569,1.287 0.374,1.886 -0.177,0.62 -0.786,1.288 -1.739,1.936 l -9.364,6.327 9.894,-13.882 0.011,-0.698 -0.257,-0.334 -0.638,-0.266 -16.604,3.97 8.743,-5.924 c 0.728,-0.501 1.406,-0.816 2.055,-0.943 0.176,-0.03 0.382,-0.04 0.56,-0.04 0.373,-0.029 0.727,0.02 1.032,0.167 0.509,0.217 0.982,0.6 1.394,1.15 l 0.835,0.167 0.501,-0.354 0.148,-0.864 -4.382,-6.406 -0.825,-0.157 -0.511,0.305 -0.05,1.011 c 0.492,0.708 0.581,1.425 0.354,2.201 -0.304,0.825 -0.972,1.592 -1.993,2.28 l -9.787,6.67 c -0.923,0.6 -1.69,0.904 -2.338,0.924 -0.746,-0.029 -1.258,-0.384 -1.739,-1.071 l -0.324,-0.491 -0.855,-0.157 -0.442,0.343 -0.167,0.816 z m -6.473,-11.191 0.824,0.315 0.52,-0.216 0.287,-0.796 -0.159,-0.433 c -0.323,-0.746 -0.363,-1.385 -0.048,-1.906 0.304,-0.599 1.011,-1.129 2.102,-1.591 l 11.406,-4.951 c 0.777,-0.354 1.445,-0.521 2.006,-0.561 0.206,0 0.402,0.04 0.579,0.069 0.598,0.157 1.06,0.589 1.347,1.336 l 0.195,0.432 0.815,0.325 0.521,-0.236 0.344,-0.816 -4.146,-9.559 -0.826,-0.315 -0.549,0.246 -0.315,0.806 0.196,0.432 c 0.326,0.776 0.326,1.395 0.05,1.926 -0.334,0.589 -1.013,1.12 -2.093,1.571 l -0.884,0.364 -0.619,0.285 -0.796,0.334 -0.472,0.217 -0.668,0.293 -1.14,0.492 -4.813,2.103 -2.457,1.061 c -0.539,0.206 -1.04,0.304 -1.424,0.334 -0.01,0 -0.049,0 -0.069,0.01 -0.382,0 -0.599,-0.04 -0.796,-0.099 -0.52,-0.196 -0.943,-0.599 -1.258,-1.306 l -0.167,-0.442 -0.815,-0.305 -0.511,0.216 -0.315,0.825 z m -7.448,-35.114 c -0.472,0 -0.855,-0.049 -1.209,-0.196 -0.579,-0.246 -0.934,-0.757 -1.15,-1.582 l -0.098,-0.442 -0.727,-0.462 -0.52,0.108 -0.472,0.767 2.467,10.158 0.756,0.443 0.511,-0.118 0.452,-0.757 -0.099,-0.452 c -0.196,-0.776 -0.089,-1.395 0.286,-1.886 0.402,-0.531 1.208,-0.933 2.328,-1.218 l 7.614,-1.838 -5.256,8.243 c -0.472,0.727 -0.757,1.061 -0.944,1.199 -0.255,0.197 -0.52,0.344 -0.903,0.413 -0.167,0.039 -0.354,0.088 -0.511,0.088 -0.344,0 -0.678,-0.108 -0.953,-0.304 -0.451,-0.305 -0.746,-0.786 -0.924,-1.474 l -0.069,-0.383 -0.726,-0.442 -0.521,0.118 -0.473,0.755 2.262,9.384 0.775,0.452 0.53,-0.128 0.384,-0.973 c -0.178,-0.756 0.059,-2.417 2.348,-5.944 l 2.25,-3.606 10.404,2.437 c 1.082,0.226 1.925,0.6 2.476,1.002 0.501,0.403 0.835,0.904 0.973,1.552 l 0.128,0.295 0.716,0.442 0.561,-0.108 0.452,-0.737 -2.398,-9.913 -0.727,-0.452 -0.59,0.138 -0.441,0.727 0.138,0.53 c 0.225,0.963 0.088,1.376 0,1.523 -0.05,0.108 -0.138,0.197 -0.384,0.266 h -0.295 c -0.226,0 -0.501,-0.089 -0.933,-0.158 l -7.408,-1.699 2.427,-3.812 2.132,-0.531 c 0.53,-0.108 1.002,-0.196 1.444,-0.216 0.471,0 0.865,0.078 1.189,0.216 0.57,0.285 0.923,0.776 1.149,1.562 l 0.098,0.462 0.737,0.462 0.57,-0.157 0.443,-0.728 -2.427,-10.139 -0.756,-0.452 -0.571,0.128 -0.471,0.766 0.118,0.443 c 0.196,0.795 0.097,1.395 -0.266,1.906 -0.412,0.52 -1.218,0.933 -2.357,1.188 l -12.095,2.938 c -0.54,0.147 -1.041,0.196 -1.444,0.196 m 4.126,-71.377 c -0.865,1.592 -1.16,3.341 -0.952,5.247 0.215,1.857 0.913,3.625 2.072,5.276 1.179,1.65 2.712,2.957 4.52,3.959 1.1,0.58 2.24,1.002 3.527,1.258 0.717,0.167 1.494,0.265 2.23,0.294 0.511,0.01 1.031,0.01 1.542,-0.029 1.268,-0.098 2.447,-0.393 3.528,-0.825 1.729,-0.669 3.036,-1.828 3.919,-3.459 0.295,-0.569 0.503,-1.13 0.649,-1.67 0.138,-0.57 0.188,-1.14 0.157,-1.719 -0.058,-0.609 -0.157,-1.228 -0.353,-1.897 -0.158,-0.746 -0.118,-0.933 -0.118,-0.972 0,0 0.314,-0.394 2.446,-0.452 l 0.54,-0.285 0.167,-0.383 -0.186,-0.826 -8.94,-5.157 -0.865,0.235 -0.158,0.344 0.148,0.786 c 0.608,0.462 1.051,0.835 1.404,1.189 0.334,0.295 0.668,0.639 1.002,1.052 0.993,1.139 1.75,2.229 2.261,3.33 0.549,1.061 0.825,2.073 0.894,3.036 0.049,0.894 -0.098,1.709 -0.492,2.387 -0.432,0.855 -1.061,1.336 -1.886,1.543 -0.324,0.098 -0.777,0.157 -1.208,0.127 -0.678,-0.029 -1.455,-0.167 -2.349,-0.432 -1.494,-0.422 -3.349,-1.238 -5.511,-2.378 -1.219,-0.668 -2.299,-1.316 -3.194,-1.925 -0.874,-0.58 -1.6,-1.189 -2.121,-1.71 -0.502,-0.541 -0.864,-1.061 -1.11,-1.582 -0.286,-0.609 -0.394,-1.228 -0.375,-1.866 0.031,-0.649 0.198,-1.258 0.532,-1.896 0.294,-0.58 0.717,-1.091 1.188,-1.533 0.482,-0.423 1.022,-0.776 1.68,-1.032 0.649,-0.255 1.366,-0.432 2.181,-0.55 0.453,-0.029 0.895,-0.049 1.336,-0.029 0.197,0 0.354,0.019 0.55,0.029 0.6,0.059 1.396,0.226 2.32,0.472 l 0.736,-0.295 0.197,-0.403 -0.393,-0.845 c -0.943,-0.285 -1.72,-0.452 -2.388,-0.54 -0.284,-0.049 -0.608,-0.059 -0.923,-0.059 -0.422,-0.03 -0.845,-0.03 -1.287,0 -3.213,0.226 -5.531,1.641 -6.917,4.185 m 19.473,-28.777 -0.501,-0.353 -0.835,0.206 -3.389,5.197 -0.011,0.619 5.492,10.169 -1.482,2.319 -4.511,-2.928 c -0.982,-0.668 -1.591,-1.287 -1.808,-1.906 -0.196,-0.59 -0.078,-1.189 0.344,-1.896 l 0.256,-0.423 -0.177,-0.845 -0.491,-0.314 -0.845,0.177 -5.67,8.763 0.188,0.845 0.481,0.315 0.845,-0.177 0.265,-0.354 c 0.452,-0.717 0.953,-1.051 1.563,-1.11 0.717,-0.039 1.542,0.236 2.465,0.865 l 10.445,6.779 c 0.991,0.648 1.61,1.297 1.827,1.896 0.177,0.589 0.078,1.208 -0.374,1.886 l -0.235,0.374 0.176,0.845 0.453,0.324 0.844,-0.197 6.996,-10.719 c 0.963,-1.513 1.621,-2.839 1.915,-3.89 0.295,-1.169 0.256,-2.26 -0.078,-3.282 -0.216,-0.589 -0.55,-1.169 -1.002,-1.719 -0.423,-0.54 -0.915,-1.002 -1.484,-1.356 -0.992,-0.658 -2.044,-0.953 -3.134,-0.904 -0.56,0.02 -1.14,0.138 -1.729,0.334 -0.609,0.256 -1.248,0.678 -1.994,1.277 -0.707,0.6 -1.357,1.209 -1.897,1.867 -0.195,0.266 -0.432,0.6 -0.737,1.012 -0.01,-0.157 -0.01,-0.344 -0.01,-0.481 0,-0.59 0.01,-1.169 0.118,-1.7 0.05,-0.54 0.197,-1.11 0.394,-1.739 l -0.06,-0.501 -0.442,-0.727 -0.599,-1.081 -0.156,-0.265 -0.306,-0.57 c -0.501,-0.825 -0.884,-1.552 -1.199,-2.22 -0.295,-0.629 -0.462,-1.12 -0.549,-1.425 -0.03,-0.481 0.137,-1.061 0.569,-1.739 l 0.256,-0.422 z m 12.773,-15.808 -12.528,12.92 v 0.835 l 0.384,0.422 h 0.933 l 0.295,-0.323 c 0.461,-0.482 0.953,-0.747 1.464,-0.757 0.756,-0.039 1.612,0.422 2.554,1.365 l 8.941,8.676 c 0.854,0.815 1.336,1.523 1.424,2.21 0.079,0.57 -0.156,1.189 -0.746,1.779 l -0.294,0.304 v 0.855 l 0.411,0.412 0.855,-0.019 12.242,-12.615 v -0.865 l -5.954,-5.767 -0.844,0.02 -0.276,0.255 -0.078,0.737 c 0.824,1.248 1.395,2.191 1.719,2.859 0.295,0.609 0.53,1.306 0.728,1.995 0.156,0.795 0.166,1.463 0.028,2.004 -0.255,0.963 -0.855,1.886 -1.729,2.81 l -1.866,1.886 -6.397,-6.199 0.187,-0.187 c 0.462,-0.5 1.003,-0.727 1.699,-0.757 0.414,-0.019 0.875,0.059 1.406,0.177 0.767,0.246 1.543,0.629 2.328,1.17 0.384,0.235 0.894,0.608 1.533,1.119 l 0.835,-0.019 0.285,-0.325 v -0.874 l -10.06,-9.756 -0.885,0.039 -0.265,0.266 -0.049,0.815 c 0.471,0.59 0.904,1.169 1.267,1.7 0.354,0.52 0.639,0.982 0.806,1.376 0.177,0.373 0.315,0.755 0.442,1.218 0.265,1.051 0.03,1.984 -0.747,2.76 l -0.048,0.05 -5.974,-5.797 1.464,-1.523 c 0.52,-0.54 1.061,-0.973 1.572,-1.307 0.481,-0.334 1.012,-0.55 1.503,-0.697 0.384,-0.099 0.767,-0.157 1.208,-0.167 h 0.511 c 1.052,0.029 2.162,0.314 3.282,0.864 0.638,0.315 1.532,0.786 2.583,1.455 l 0.776,-0.089 0.295,-0.305 -0.009,-0.864 -6.347,-6.161 z m 19.688,-14.03 -0.825,-0.127 -7.693,5.777 -0.138,0.855 0.364,0.481 0.854,0.118 1.013,-0.747 c 0.462,-0.354 0.717,-0.432 0.874,-0.432 0.108,0 0.286,0 0.511,0.285 0.138,0.186 0.284,0.462 0.432,0.805 0.138,0.393 0.364,1.091 0.727,2.162 l 0.088,0.373 0.128,0.354 0.119,0.403 -4.912,3.674 -1.002,-0.707 c -0.423,-0.256 -0.757,-0.6 -1.072,-1.002 -0.216,-0.275 -0.383,-0.639 -0.491,-1.081 -0.089,-0.373 -0.089,-0.678 0,-0.963 0.058,-0.275 0.138,-0.393 0.177,-0.442 0.019,-0.049 0.157,-0.177 0.392,-0.423 l 0.089,-0.835 -0.324,-0.472 -0.885,-0.127 -5.345,4.078 -0.126,0.854 0.323,0.452 0.796,0.197 c 0.384,-0.217 0.708,-0.335 0.934,-0.393 h 0.068 c 0.344,-0.03 0.648,0 0.982,0.058 1.09,0.138 2.624,0.885 4.56,2.182 l 13.449,9.117 0.728,-0.01 0.334,-0.255 0.206,-0.659 -5.934,-18.961 c -0.157,-0.501 -0.226,-1.002 -0.285,-1.405 0,-0.364 0.068,-0.658 0.187,-0.894 0.098,-0.256 0.314,-0.482 0.589,-0.689 l 0.344,-0.264 0.117,-0.875 z m 20.819,11.918 -0.225,0.147 -6.917,-14.138 c -0.581,-1.159 -0.728,-2.082 -0.492,-2.781 0.158,-0.52 0.54,-0.893 1.179,-1.217 l 2.24,-1.081 0.295,-0.825 -0.266,-0.531 -0.806,-0.295 -12.988,6.357 -0.275,0.825 0.275,0.531 0.836,0.285 2.17,-1.101 c 0.355,-0.157 0.649,-0.255 0.963,-0.294 0.375,-0.02 1.505,-0.167 2.643,2.191 l 6.937,14.118 -0.423,0.196 c -0.412,0.217 -0.855,0.334 -1.276,0.364 -1.21,0.147 -2.545,-0.354 -3.96,-1.405 -1.022,-0.747 -2.014,-1.769 -3.006,-3.036 -0.276,-0.442 -0.738,-1.11 -1.346,-2.083 l -0.777,-0.226 -0.363,0.167 -0.285,0.835 4.765,9.756 0.825,0.276 17.399,-8.509 0.287,-0.835 -4.777,-9.736 -0.785,-0.295 -0.314,0.128 -0.354,0.796 c 0.983,2.446 1.405,4.755 1.316,6.887 -0.137,2.299 -0.943,3.792 -2.495,4.529 m 19.09,-7.173 -0.777,-0.353 -0.462,0.118 c -0.225,0.079 -0.412,0.138 -0.637,0.157 -0.493,0.069 -0.905,0 -1.278,-0.226 -0.52,-0.373 -0.993,-1.12 -1.376,-2.259 l -4.007,-11.8 c -0.375,-1.091 -0.462,-1.975 -0.266,-2.604 0.216,-0.569 0.667,-0.982 1.473,-1.238 l 0.443,-0.167 0.373,-0.746 -0.217,-0.58 -0.757,-0.393 -9.883,3.36 -0.353,0.776 0.196,0.541 0.776,0.383 0.432,-0.128 c 0.237,-0.088 0.423,-0.118 0.639,-0.157 0.481,-0.068 0.895,0.029 1.297,0.255 0.54,0.344 1.012,1.12 1.385,2.221 l 0.511,1.532 0.108,0.325 0.334,0.972 0.245,0.727 0.423,1.15 1.562,4.697 0.963,2.829 c 0.138,0.56 0.207,1.061 0.236,1.444 0,0.305 -0.059,0.58 -0.196,0.825 -0.217,0.541 -0.668,0.924 -1.396,1.16 l -0.431,0.147 -0.404,0.756 0.217,0.56 0.766,0.384 9.864,-3.351 0.354,-0.776 z m 22.017,-3.615 -0.599,-0.481 c -0.531,0 -1.013,-0.128 -1.474,-0.354 -0.501,-0.275 -0.982,-0.706 -1.444,-1.267 -0.491,-0.639 -1.061,-1.474 -1.612,-2.535 l -8.075,-14.875 -0.571,-0.344 -0.392,0.059 -0.56,0.472 -3.361,18.893 c -0.324,1.945 -0.953,3.016 -1.857,3.144 l -0.569,0.098 -0.511,0.708 0.108,0.55 0.698,0.511 9.53,-1.582 0.481,-0.707 -0.079,-0.541 -0.688,-0.521 -1.169,0.187 c -0.431,0.039 -0.678,0 -0.854,-0.118 -0.265,-0.137 -0.354,-0.364 -0.412,-0.717 -0.06,-0.393 -0.041,-0.933 0.039,-1.562 l 2.043,-11.633 4.707,8.725 c 0.382,0.697 0.657,1.346 0.736,1.896 0.157,0.737 0.049,1.316 -0.206,1.758 -0.246,0.443 -0.639,0.707 -1.198,0.836 l -0.473,0.697 0.118,0.57 0.689,0.491 6.601,-1.071 0.491,-0.707 z m 20.524,-20.239 -18,-0.874 -0.629,0.58 -0.039,0.54 0.571,0.668 0.452,0.049 c 1.109,0.069 2.367,0.491 2.22,3.429 l -0.589,12.399 c -0.06,1.199 -0.286,2.053 -0.728,2.544 -0.343,0.423 -0.835,0.61 -1.503,0.62 h -0.314 l -0.442,-0.01 -0.649,0.569 -0.03,0.58 0.571,0.629 17.557,0.864 0.657,-0.589 0.414,-8.282 -0.59,-0.649 h -0.374 l -0.618,0.433 c -0.384,1.395 -0.708,2.456 -0.982,3.163 -0.266,0.658 -0.62,1.277 -1.032,1.868 -0.471,0.637 -0.963,1.099 -1.475,1.384 -0.697,0.324 -1.552,0.511 -2.474,0.531 -0.266,0.019 -0.531,0.019 -0.807,0 l -2.613,-0.148 0.413,-8.911 h 0.255 c 1.061,0.049 1.887,0.698 2.466,1.975 0.344,0.707 0.56,1.552 0.688,2.515 0.078,0.472 0.138,1.071 0.177,1.896 l 0.559,0.6 0.443,0.019 0.648,-0.589 0.668,-14.01 -0.579,-0.629 -0.403,-0.02 -0.668,0.501 c -0.117,0.747 -0.275,1.444 -0.383,2.083 -0.188,0.619 -0.334,1.12 -0.511,1.523 -0.186,0.354 -0.402,0.747 -0.639,1.12 -0.551,0.806 -1.307,1.248 -2.24,1.257 H 5.708 5.659 l 0.383,-8.321 2.103,0.098 c 0.746,0.02 1.415,0.148 2.043,0.295 0.56,0.167 1.051,0.393 1.503,0.697 0.452,0.325 0.885,0.698 1.268,1.189 0.668,0.806 1.179,1.818 1.532,3.007 0.187,0.737 0.384,1.69 0.61,2.898 l 0.56,0.511 0.471,0.019 0.599,-0.589 0.424,-8.783 z m 40.724,12.448 -9.963,-3.841 -0.767,0.344 -0.254,0.56 0.382,0.795 0.659,0.246 c 0.766,0.295 1.219,0.727 1.375,1.307 0.197,0.648 0.1,1.523 -0.323,2.603 l -4.068,10.513 0.196,-17.026 -0.412,-0.59 -0.373,-0.128 -0.668,0.157 -11.397,12.694 3.831,-9.844 c 0.315,-0.816 0.688,-1.475 1.14,-1.926 0.433,-0.413 0.874,-0.707 1.385,-0.806 0.216,-0.049 0.441,-0.068 0.639,-0.068 0.363,0.019 0.737,0.078 1.139,0.216 l 0.786,-0.374 0.217,-0.54 -0.354,-0.796 -7.251,-2.8 -0.796,0.354 -0.226,0.57 0.511,0.854 c 0.825,0.315 1.317,0.816 1.542,1.612 0.256,0.825 0.148,1.847 -0.303,2.996 l -4.294,11.063 c -0.402,1.1 -0.903,1.837 -1.474,2.161 -0.285,0.187 -0.58,0.236 -0.934,0.236 -0.274,0 -0.629,-0.049 -0.982,-0.196 l -0.55,-0.207 -0.786,0.354 -0.197,0.511 0.335,0.796 6.455,2.476 0.677,-0.148 10.631,-11.829 -0.148,15.867 0.404,0.58 6.11,2.368 0.776,-0.364 0.206,-0.52 -0.353,-0.806 -0.55,-0.197 c -0.786,-0.314 -1.248,-0.737 -1.435,-1.326 -0.177,-0.629 -0.049,-1.513 0.373,-2.613 l 4.48,-11.603 c 0.423,-1.091 0.895,-1.818 1.475,-2.152 0.285,-0.177 0.609,-0.275 0.953,-0.275 0.295,0.01 0.618,0.078 0.972,0.236 l 0.551,0.196 0.815,-0.354 0.196,-0.54 z m 15.003,9.049 -8.745,-5.659 -0.846,0.186 -0.303,0.502 0.157,0.864 0.413,0.226 c 0.677,0.442 1.03,0.973 1.08,1.582 0.069,0.638 -0.245,1.483 -0.865,2.486 l -0.883,1.355 -0.295,0.462 -0.472,0.708 -0.914,1.414 -2.917,4.481 -1.563,2.407 c -0.354,0.451 -0.707,0.825 -0.962,1.051 -0.266,0.206 -0.512,0.334 -0.796,0.393 -0.167,0.049 -0.355,0.088 -0.491,0.088 -0.384,-0.02 -0.827,-0.177 -1.288,-0.462 l -0.363,-0.255 -0.855,0.167 -0.304,0.462 0.176,0.855 8.763,5.678 0.816,-0.186 0.305,-0.472 -0.167,-0.845 -0.403,-0.255 c -0.678,-0.443 -1.052,-0.963 -1.11,-1.562 -0.049,-0.659 0.256,-1.484 0.914,-2.486 l 6.749,-10.434 c 0.659,-1.002 1.318,-1.582 1.916,-1.818 0.197,-0.059 0.404,-0.108 0.61,-0.108 0.392,0.02 0.824,0.167 1.237,0.452 l 0.404,0.275 0.835,-0.186 0.343,-0.492 z m 18.785,15.838 -0.266,-0.285 -0.55,-0.158 -21.507,4.078 7.349,-8.057 c 0.786,-0.854 1.483,-1.493 2.083,-1.807 0.511,-0.335 1.061,-0.492 1.532,-0.462 0.522,0.01 0.963,0.186 1.366,0.462 0.325,0.167 0.669,0.442 1.13,0.796 l 0.796,-0.06 0.413,-0.442 -0.058,-0.835 -6.387,-5.816 -0.825,0.059 -0.423,0.403 0.04,0.845 c 0.53,0.56 0.892,1.109 1.051,1.631 0.117,0.511 0.098,1.031 -0.109,1.572 -0.255,0.599 -0.687,1.247 -1.316,1.915 l -8.115,8.951 c -0.453,0.471 -0.894,0.815 -1.347,0.982 -0.284,0.089 -0.55,0.157 -0.845,0.157 -0.147,-0.009 -0.274,-0.009 -0.431,-0.068 -0.443,-0.089 -0.866,-0.325 -1.317,-0.708 l -1.021,-0.098 -0.384,0.413 0.029,0.835 4.923,4.499 0.521,0.138 17.045,-3.291 -4.982,5.453 c -0.706,0.766 -1.404,1.365 -2.111,1.778 -0.629,0.314 -1.208,0.462 -1.768,0.462 -0.491,-0.04 -0.757,-0.078 -0.992,-0.187 -0.149,-0.089 -0.462,-0.246 -0.963,-0.609 l -0.845,0.068 -0.373,0.423 0.048,0.865 6.043,5.521 0.854,-0.029 0.403,-0.423 -0.137,-0.982 c -0.748,-0.659 -1.022,-1.415 -0.865,-2.358 0.167,-1.022 0.873,-2.211 2.053,-3.478 l 10.326,-11.289 z m 15.601,20.956 c -0.304,-1.346 -0.894,-2.662 -1.728,-3.871 l -6.771,-9.589 -0.834,-0.177 -0.482,0.334 -0.157,0.855 0.353,0.481 c 0.453,0.698 0.61,1.307 0.443,1.886 -0.217,0.659 -0.796,1.317 -1.778,1.985 l -10.18,7.143 c -0.932,0.668 -1.728,0.963 -2.406,0.963 -0.649,-0.03 -1.179,-0.354 -1.651,-1.042 l -0.334,-0.501 -0.854,-0.137 -0.453,0.324 -0.147,0.845 6.298,8.98 c 1.041,1.532 2.25,2.721 3.528,3.478 1.316,0.835 2.819,1.277 4.43,1.326 0.196,0.01 0.383,0.01 0.608,0.01 1.161,0.029 2.359,-0.157 3.538,-0.482 1.385,-0.393 2.662,-1.011 3.812,-1.827 1.278,-0.914 2.338,-1.965 3.154,-3.134 0.806,-1.199 1.346,-2.486 1.631,-3.802 0.266,-1.346 0.266,-2.692 -0.02,-4.048 m 11.043,18.981 c -0.324,-0.726 -0.737,-1.405 -1.247,-2.004 -0.511,-0.56 -1.21,-1.169 -2.143,-1.837 -0.52,-0.423 -0.894,-0.757 -1.12,-0.993 -0.186,-0.196 -0.323,-0.393 -0.421,-0.609 -0.188,-0.363 -0.208,-0.717 -0.05,-1.07 0.148,-0.384 0.413,-0.757 0.914,-1.081 l 0.206,-0.776 -0.157,-0.364 -0.806,-0.314 -9.03,4.136 -0.274,0.776 0.157,0.403 0.757,0.334 c 1.169,-0.403 2.348,-0.599 3.566,-0.56 0.402,0 0.777,0.029 1.179,0.089 0.924,0.137 1.886,0.471 2.84,0.922 0.962,0.472 1.797,1.032 2.504,1.691 0.709,0.638 1.229,1.297 1.553,2.004 0.265,0.629 0.413,1.228 0.384,1.837 -0.02,0.629 -0.217,1.16 -0.521,1.621 -0.344,0.462 -0.748,0.826 -1.336,1.101 -0.383,0.157 -0.787,0.245 -1.21,0.245 -0.196,0 -0.412,-0.059 -0.578,-0.088 -0.306,-0.059 -0.59,-0.177 -0.885,-0.364 -0.334,-0.225 -0.726,-0.501 -1.159,-0.894 -0.433,-0.383 -0.992,-0.963 -1.69,-1.68 l -0.865,-0.913 c -1.434,-1.435 -2.397,-2.398 -3.026,-2.918 -0.736,-0.58 -1.365,-1.022 -1.955,-1.297 -0.57,-0.275 -1.228,-0.442 -2.004,-0.521 -0.127,-0.01 -0.314,-0.01 -0.472,-0.01 -0.874,-0.02 -1.729,0.157 -2.584,0.511 -1.149,0.531 -2.102,1.317 -2.81,2.289 -0.677,0.973 -1.071,2.083 -1.149,3.301 -0.109,1.209 0.157,2.428 0.687,3.586 0.767,1.73 2.241,3.282 4.314,4.54 0.825,0.53 0.963,0.716 0.963,0.727 0.147,0.363 -0.551,0.952 -0.894,1.208 l -0.167,0.717 0.157,0.383 0.815,0.305 6.672,-3.036 0.314,-0.815 -0.186,-0.393 -0.649,-0.335 c -1.248,0.177 -2.359,0.256 -3.272,0.256 -0.364,-0.01 -0.708,-0.049 -1.002,-0.079 -0.737,-0.108 -1.485,-0.373 -2.181,-0.746 -0.689,-0.364 -1.366,-0.855 -1.936,-1.474 -0.579,-0.59 -1.032,-1.287 -1.385,-2.004 -0.236,-0.501 -0.353,-1.012 -0.353,-1.474 0,-0.471 0.117,-0.914 0.353,-1.356 0.167,-0.275 0.364,-0.58 0.648,-0.854 0.246,-0.256 0.512,-0.433 0.766,-0.58 0.354,-0.147 0.688,-0.226 1.051,-0.207 0.167,0 0.326,0.03 0.512,0.06 0.265,0.078 0.531,0.186 0.826,0.383 0.334,0.226 0.726,0.53 1.149,0.943 0.422,0.422 0.991,1.041 1.709,1.837 0.206,0.187 0.344,0.315 0.393,0.383 l 0.452,0.511 0.657,0.727 c 1.102,1.199 2.054,2.093 2.771,2.613 0.718,0.531 1.524,0.885 2.427,1.101 0.404,0.108 0.855,0.167 1.278,0.167 0.274,0 0.54,0 0.825,-0.02 0.757,-0.069 1.523,-0.294 2.24,-0.619 0.707,-0.344 1.396,-0.815 2.014,-1.375 0.6,-0.59 1.11,-1.218 1.464,-1.906 0.501,-0.963 0.747,-1.965 0.728,-2.997 0,-1.021 -0.256,-2.063 -0.728,-3.144 m 6.828,65.885 -0.697,0.433 c -0.158,0.481 -0.354,0.894 -0.589,1.277 -0.217,0.373 -0.512,0.697 -0.855,0.972 -0.295,0.295 -0.737,0.6 -1.258,0.875 -0.55,0.314 -1.179,0.589 -1.818,0.835 l -7.554,2.839 -4.923,-0.845 c -1.149,-0.167 -1.965,-0.53 -2.447,-1.022 -0.382,-0.46 -0.541,-1.06 -0.382,-1.866 l 0.186,-1.091 -0.501,-0.717 -0.629,-0.098 -0.687,0.491 -1.975,11.624 0.491,0.677 0.608,0.098 0.709,-0.491 0.186,-1.14 c 0.167,-0.786 0.462,-1.326 1.002,-1.621 0.354,-0.177 0.806,-0.304 1.336,-0.304 0.384,0 0.806,0.039 1.307,0.127 l 4.383,0.747 7.653,6.258 c 0.933,0.747 1.531,1.415 1.826,1.985 0.247,0.57 0.315,1.287 0.178,2.073 l -0.059,0.295 0.52,0.697 0.551,0.109 0.727,-0.511 1.778,-10.405 -0.512,-0.727 -0.54,-0.089 -0.697,0.462 -0.196,1.209 c -0.05,0.344 -0.167,0.619 -0.325,0.727 -0.087,0.088 -0.215,0.108 -0.374,0.128 -0.313,-0.04 -0.431,-0.089 -0.52,-0.167 -0.216,-0.069 -0.589,-0.403 -1.208,-0.875 l -5.679,-4.598 5.777,-2.191 c 0.6,-0.245 1.14,-0.363 1.533,-0.383 0.128,0 0.236,0.02 0.324,0.049 0.501,0.049 0.865,0.295 1.12,0.658 0.236,0.354 0.315,0.787 0.236,1.307 l -0.187,1.071 0.521,0.717 0.54,0.079 0.708,-0.491 1.435,-8.381 -0.512,-0.707 z" style="fill:#880827;fill-opacity:1;fill-rule:nonzero;stroke:none" id="path39"></path>
          </g>
          <g id="g41" transform="translate(257.9199,465.8313)">
            <path d="m 0,0 c 0.413,-0.265 0.875,-0.363 1.345,-0.413 0.158,0 0.315,0 0.492,0.03 C 2.544,-0.295 3.351,0.02 4.205,0.619 5.433,1.405 6.13,2.28 6.375,3.232 6.542,4.166 6.278,5.266 5.492,6.426 L 3.223,9.923 -3.97,5.266 -1.729,1.837 C -1.179,0.973 -0.581,0.364 0,0" style="fill:#880827;fill-opacity:1;fill-rule:nonzero;stroke:none" id="path43"></path>
          </g>
          <g id="g45" transform="translate(274.0811,618.5088)">
            <path d="m 0,0 c 1.062,1.022 1.563,1.995 1.563,2.987 -0.039,1.002 -0.61,2.161 -1.759,3.35 -1.189,1.267 -2.339,1.935 -3.419,1.935 -0.089,0.01 -0.197,0.01 -0.295,0 C -4.333,8.243 -4.726,8.125 -5.09,7.88 -5.541,7.634 -6.013,7.29 -6.554,6.789 L -8.409,5.06 -1.954,-1.827 Z" style="fill:#880827;fill-opacity:1;fill-rule:nonzero;stroke:none" id="path47"></path>
          </g>
        </g>
      </g>
      <g id="g49" transform="translate(278.7676,437.1921)">
        <path d="M 0,0 3.89,-2.928 6.16,4.185 Z" style="fill:#880827;fill-opacity:1;fill-rule:nonzero;stroke:none" id="path51"></path>
      </g>
      <g id="g53">
        <g id="g55" clip-path="url(#clipPath59)">
          <g id="g61" transform="translate(423.6934,622.4094)">
            <path d="m 0,0 c 0.775,-0.658 1.542,-1.042 2.21,-1.179 0.207,-0.069 0.443,-0.098 0.639,-0.098 0.413,0 0.806,0.098 1.218,0.304 0.64,0.246 1.307,0.825 1.945,1.631 1.847,2.26 1.652,4.156 -0.579,5.944 L 2.181,9.216 -3.164,2.574 Z" style="fill:#880827;fill-opacity:1;fill-rule:nonzero;stroke:none" id="path63"></path>
          </g>
          <g id="g65" transform="translate(284.8589,630.0627)">
            <path d="M 0,0 C 0.481,-0.943 1.022,-1.935 1.739,-2.967 2.594,-4.234 3.508,-5.295 4.402,-6.16 5.325,-7.034 6.2,-7.712 7.113,-8.164 7.979,-8.606 8.783,-8.823 9.521,-8.833 H 9.55 c 0.855,0.04 1.445,0.227 1.985,0.61 0.825,0.579 1.336,1.365 1.552,2.417 0.196,1.071 0.029,2.387 -0.472,3.851 C 12.104,-0.413 11.24,1.228 10.051,3.007 9.226,4.136 8.41,5.148 7.525,5.983 6.641,6.858 5.768,7.506 4.922,7.959 4.078,8.41 3.291,8.695 2.515,8.744 H 2.044 C 1.798,8.744 1.592,8.714 1.356,8.685 0.982,8.567 0.668,8.44 0.394,8.252 -0.117,7.899 -0.53,7.477 -0.835,6.917 -1.119,6.357 -1.278,5.807 -1.278,5.158 -1.297,4.421 -1.228,3.596 -1.012,2.741 -0.795,1.857 -0.471,0.953 0,0" style="fill:#880827;fill-opacity:1;fill-rule:nonzero;stroke:none" id="path67"></path>
          </g>
          <g id="g69" transform="translate(450.2202,468.0618)">
            <path d="M 0,0 C -0.953,0.678 -1.866,1.228 -2.74,1.68 -3.705,2.132 -4.529,2.437 -5.315,2.604 -6.022,2.8 -6.681,2.879 -7.329,2.879 H -7.525 C -8.065,2.829 -8.607,2.721 -9.048,2.515 -9.52,2.309 -9.952,2.004 -10.366,1.621 -10.817,1.198 -11.269,0.658 -11.751,-0.02 L -13.116,-1.985 2.437,-12.9 3.93,-10.768 c 0.472,0.737 0.835,1.356 1.121,1.896 0.196,0.521 0.334,1.022 0.353,1.533 0.03,0.471 -0.058,0.963 -0.236,1.464 C 4.569,-3.93 2.839,-1.985 0,0" style="fill:#880827;fill-opacity:1;fill-rule:nonzero;stroke:none" id="path71"></path>
          </g>
          <g id="g73" transform="translate(356.3149,616.2886)">
            <path d="m 0,0 c -47.346,2.623 -87.863,-33.679 -90.457,-81.055 -0.56,-10.217 0.678,-20.131 3.488,-29.395 0.01,-0.079 0.01,-0.138 0.059,-0.207 4.558,-14.639 29.533,-22.165 64.451,-17.428 44.801,6.061 89.022,29.925 98.837,53.328 2.112,5.04 2.436,9.638 1.228,13.725 -0.039,0.069 -0.068,0.128 -0.068,0.197 C 67.35,-27.254 37.079,-2.014 0,0" style="fill:#880827;fill-opacity:1;fill-rule:nonzero;stroke:none" id="path75"></path>
          </g>
          <g id="g77" transform="translate(333.0693,481.561)">
            <path d="m 0,0 c -23.963,-2.928 -43.67,-0.256 -56.365,6.416 14,-24.494 39.702,-41.628 69.972,-43.279 47.356,-2.594 87.873,33.68 90.496,81.064 0.188,3.479 0.167,6.937 -0.068,10.346 C 90.241,29.376 45.587,5.6 0,0" style="fill:#880827;fill-opacity:1;fill-rule:nonzero;stroke:none" id="path79"></path>
          </g>
          <g id="g81" transform="translate(329.6499,525.7725)">
            <path d="m 0,0 c 0,-8.469 -7.053,-14.295 -16.721,-14.295 -9.963,0 -16.693,6.405 -16.693,14.266 l 0.08,28.207 h 11.425 V 1.906 c 0,-4.431 2.063,-5.374 5.188,-5.374 3.174,0 5.442,1.002 5.442,5.374 l -0.058,26.272 H 0 Z" style="fill:#ffffff;fill-opacity:1;fill-rule:nonzero;stroke:none" id="path83"></path>
          </g>
        </g>
      </g>
      <g id="g85" transform="translate(359.9507,512.342)">
        <path d="m 0,0 -12.842,15.857 -0.599,-0.491 V 0.069 h -11.446 v 41.726 h 11.446 V 30.29 l 10.67,11.544 H 11.298 L -4.245,23.422 14.079,0 Z" style="fill:#ffffff;fill-opacity:1;fill-rule:nonzero;stroke:none" id="path87"></path>
      </g>
      <g id="g89">
        <g id="g91" clip-path="url(#clipPath95)">
          <g id="g97" transform="translate(391.271,554.2842)">
            <path d="m 0,0 h -17.203 v -41.923 h 11.486 v 13.274 H 0 c 7.801,0 15.484,5.895 15.484,13.529 C 15.484,-5.433 7.801,0 0,0 m -0.54,-17.646 h -5.158 v 6.514 h 5.158 c 2.092,0 4.372,-0.815 4.372,-3.134 0,-2.81 -2.28,-3.38 -4.372,-3.38" style="fill:#ffffff;fill-opacity:1;fill-rule:nonzero;stroke:none" id="path99"></path>
          </g>
        </g>
      </g>
    </g>
  </g>
</svg>
